<?xml version="1.0" encoding="UTF-8" standalone="no"?>
<svg xmlns="http://www.w3.org/2000/svg" viewBox="0 0 24 24">
<style>
	g path { stroke: none; }
	g.root { display: none; }
	g.root:target { display: inline; }
	g line { stroke: black; }
	g circle { stroke: black; }
	g polyline { stroke: black; }
</style>
<g class="root" id="arrow_down" data-name="arrow-down">
	<path d="M13.006 18.316l10.823-10.823a1.217 1.217 0 0 0-1.668-1.668l-10.006 10.006l-10.006-10.006A1.234 1.234 5.402 0 0 0.399 5.642a1.201 1.201 0 0 0-0.117 1.668A0.384 0.384 5.402 0 0 0.399 7.476L11.289 18.316a1.234 1.234 0 0 0 1.668 0Z" />
</g>
<g class="root" id="close" data-name="close">
	<path d="M1.285 0.002A1.498 1.498 0.012 0 0 0.012 1.5a1.498 1.498 0 0 0 0.434 0.884L10.019 11.986L0.447 21.604a1.408 1.408 0 0 0 0 1.992a1.393 1.393 0 0 0 1.962 0L11.996 14.009l9.572 9.587a1.498 1.498 0 0 0 2.007 0a1.408 1.408 0 0 0 0-1.992L14.034 11.986l9.587-9.587A1.423 1.423 0.012 0 0 21.614 0.437L11.996 10.009L2.454 0.437A1.588 1.588 0.012 0 0 1.285 0.002Z" />
</g>
<g class="root" id="menu_2" data-name="menu-2">
	<path d="M0 19.8V18.6H12v1.2ZM0 12.6V11.4H18v1.2ZM0 5.4V4.2H24V5.4Z" />
</g>
<g class="root" id="search" data-name="search">
	<path d="M2.77 8.945a6.153 6.153 0 1 1 1.802 4.376A5.954 5.954-858.873 0 1 2.77 8.945Zm13.318 6.177l-0.384-0.384a8.546 8.546 0 0 0 2.124-5.792a8.69 8.69 0 0 0-2.574-6.338a8.524 8.524 0 0 0-6.306-2.606a8.9 8.9 0 0 0-8.947 8.945a8.521 8.521 0 0 0 2.607 6.306a8.681 8.681 0 0 0 6.338 2.574a8.546 8.546 0 0 0 5.792-2.123l0.384 0.384v1.094l6.818 6.818l2.06-2.06l-6.818-6.818Z" />
</g>
</svg>