<?xml version="1.0" encoding="UTF-8" standalone="no"?>
<svg xmlns="http://www.w3.org/2000/svg" viewBox="0 0 36 36">
<style>
	g path { stroke: none; }
	g line { stroke: black; }
	g circle { stroke: black; }
	g polyline { stroke: black; }
</style>
<g class="root" id="twitter" data-name="Twitter">
	<path d="M26.319 24.312c-0.981-1.431-1.969-2.862-2.95-4.294c-0.988-1.438-1.981-2.881-2.969-4.319c-0.075-0.112-0.162-0.219-0.25-0.338c0.25-0.294 0.488-0.594 0.738-0.881c0.812-0.944 1.625-1.881 2.438-2.825c0.431-0.5 0.862-0.994 1.294-1.488c1.062-1.238 2.125-2.475 3.188-3.719c0.856-1 1.712-2 2.569-3c0-0.006 0.006-0.006 0.006-0.012h-2.362c-0.2 0.231-0.394 0.456-0.594 0.688c-1.031 1.194-2.062 2.388-3.094 3.581c-0.731 0.844-1.456 1.694-2.188 2.544c-0.512 0.594-1.019 1.188-1.531 1.788c-0.469 0.544-0.931 1.094-1.394 1.638c-0.031 0.038-0.044 0.088-0.075 0.162c-0.119-0.15-0.194-0.238-0.256-0.331c-0.181-0.256-0.356-0.512-0.531-0.775c-1.075-1.562-2.144-3.125-3.219-4.688c-1.05-1.531-2.106-3.062-3.15-4.594c0-0.006-0.006-0.006-0.006-0.012h-8.312c0.425 0.612 0.85 1.219 1.275 1.838c0.769 1.119 1.531 2.244 2.3 3.362c0.912 1.325 1.825 2.644 2.731 3.962c1.025 1.494 2.05 2.994 3.075 4.488c0.444 0.644 0.881 1.294 1.325 1.938c0.081 0.119 0.062 0.206-0.025 0.306c-0.169 0.181-0.338 0.362-0.494 0.55c-0.662 0.769-1.312 1.544-1.975 2.312c-0.956 1.112-1.919 2.225-2.881 3.338c-0.706 0.819-1.406 1.638-2.106 2.456c-1.094 1.269-2.181 2.544-3.275 3.812h2.35c0.881-1.025 1.769-2.05 2.65-3.075c0.912-1.05 1.825-2.106 2.731-3.156c0.75-0.869 1.494-1.738 2.238-2.606c0.438-0.512 0.881-1.019 1.325-1.525c0.169-0.194 0.331-0.394 0.506-0.581c0.112-0.119 0.162-0.1 0.256 0.031c0.575 0.844 1.15 1.681 1.725 2.519c1.1 1.606 2.194 3.212 3.294 4.812c0.731 1.062 1.462 2.119 2.194 3.175c0.094 0.138 0.188 0.269 0.288 0.406H31.438c-0.781-1.144-1.55-2.288-2.331-3.425C28.175 27.019 27.244 25.669 26.319 24.312zM28.156 30.188c-0.062 0-0.125 0-0.188 0c-1.131 0-2.256-0.006-3.388 0c-0.162 0-0.256-0.025-0.356-0.188c-0.306-0.488-0.65-0.944-0.981-1.419c-0.581-0.838-1.162-1.675-1.75-2.506c-0.788-1.125-1.575-2.244-2.362-3.362c-0.819-1.169-1.631-2.331-2.45-3.5c-0.656-0.944-1.306-1.894-1.969-2.838c-0.95-1.362-1.912-2.719-2.862-4.075c-0.575-0.819-1.144-1.644-1.719-2.469c-0.938-1.338-1.869-2.675-2.806-4.012c-0.138-0.2-0.275-0.394-0.412-0.594c-0.031-0.044-0.056-0.1-0.1-0.188c0.144 0 0.238 0 0.338 0c1.138 0 2.281-0.006 3.419-0.012c0.1 0 0.138 0.031 0.188 0.112c0.3 0.438 0.606 0.869 0.912 1.306c0.569 0.819 1.144 1.638 1.712 2.45c0.781 1.112 1.562 2.225 2.338 3.338c0.706 1.012 1.406 2.025 2.112 3.038c0.919 1.319 1.844 2.631 2.762 3.944c0.881 1.256 1.75 2.519 2.631 3.775c1.025 1.462 2.05 2.925 3.075 4.388c0.562 0.8 1.125 1.606 1.688 2.412c0.075 0.112 0.138 0.238 0.206 0.356C28.181 30.156 28.169 30.169 28.156 30.188z" />
</g>
</svg>