<?xml version="1.0" encoding="UTF-8" standalone="no"?>
<svg xmlns="http://www.w3.org/2000/svg" viewBox="0 0 24 24">
<style>
	g path { stroke: none; }
	g.root { display: none; }
	g.root:target { display: inline; }
	g line { stroke: black; }
	g circle { stroke: black; }
	g polyline { stroke: black; }
</style>
<g class="root" id="arrow_down" data-name="arrow-down">
	<path d="M13.006 18.316l10.823-10.823a1.217 1.217 0 0 0-1.668-1.668l-10.006 10.006l-10.006-10.006A1.234 1.234 5.402 0 0 0.399 5.642a1.201 1.201 0 0 0-0.117 1.668A0.384 0.384 5.402 0 0 0.399 7.476L11.289 18.316a1.234 1.234 0 0 0 1.668 0Z" />
</g>
<g class="root" id="arrow_left" data-name="arrow-left">
	<path d="M0.169 11.593l5.177-5.025a0.595 0.595 0 0 1 0.417-0.168h0A0.591 0.591 11.991 0 1 6.307 6.752a0.56 0.56 0 0 1-0.128 0.624l-4.172 4.05h21.391a0.572 0.572 0 1 1 0 1.142h-21.391l4.172 4.05a0.56 0.56 0 0 1 0 0.808a0.601 0.601 0 0 1-0.833 0l-5.177-5.025A0.56 0.56 11.991 0 1 0.169 11.593Z" />
</g>
<g class="root" id="arrow_right" data-name="arrow-right">
	<path d="M23.828 11.596L18.649 6.568a0.595 0.595 0 0 0-0.417-0.168h0A0.591 0.591 12.001 0 0 17.687 6.753a0.56 0.56 0 0 0 0.128 0.624l4.174 4.051h-21.4a0.58 0.58 0 0 0-0.589 0.572a0.58 0.58 0 0 0 0.589 0.572h21.4L17.815 16.623a0.56 0.56 0 0 0 0 0.809a0.602 0.602 0 0 0 0.834 0l5.18-5.028A0.56 0.56 12.001 0 0 23.828 11.596Z" />
</g>
<g class="root" id="btn_icon" data-name="btn-icon">
	<path d="M23.827 11.596L18.648 6.568a0.595 0.595 0 0 0-0.417-0.168h0A0.591 0.591 12 0 0 17.686 6.753a0.56 0.56 0 0 0 0.128 0.624l4.174 4.051h-21.399a0.58 0.58 0 0 0-0.589 0.572a0.58 0.58 0 0 0 0.589 0.572h21.399L17.814 16.623a0.56 0.56 0 0 0 0 0.809a0.602 0.602 0 0 0 0.834 0l5.18-5.028A0.56 0.56 12 0 0 23.827 11.596Z" />
</g>
<g class="root" id="close" data-name="close">
	<path d="M1.285 0.002A1.498 1.498 0.012 0 0 0.012 1.5a1.498 1.498 0 0 0 0.434 0.884L10.019 11.986L0.447 21.604a1.408 1.408 0 0 0 0 1.992a1.393 1.393 0 0 0 1.962 0L11.996 14.009l9.572 9.587a1.498 1.498 0 0 0 2.007 0a1.408 1.408 0 0 0 0-1.992L14.034 11.986l9.587-9.587A1.423 1.423 0.012 0 0 21.614 0.437L11.996 10.009L2.454 0.437A1.588 1.588 0.012 0 0 1.285 0.002Z" />
</g>
<g class="root" id="consult" data-name="consult">
	<path class="fill-secondary" d="M8.001 15.43L6.4 15.43L6.4 12.39C6.4 11.177 5.825 10.161 4.956 9.569C5.825 8.999 6.4 8.014 6.4 6.897C6.4 5.132 4.966 3.697 3.201 3.697C1.435 3.697 0 5.132 0 6.897C0 8.009 0.572 8.99 1.435 9.564C1.287 9.663 1.145 9.772 1.012 9.894C0.369 10.54 0 11.351 0 12.23L0 19.164C0 19.457 0.241 19.696 0.534 19.696L5.335 19.696L5.335 23.43C5.335 23.724 5.574 23.963 5.867 23.963L9.067 23.963C9.361 23.963 9.601 23.724 9.601 23.43L9.601 17.03C9.601 16.148 8.883 15.43 8.001 15.43L8.001 15.43ZM3.201 4.763C4.377 4.763 5.335 5.721 5.335 6.897C5.335 8.073 4.377 9.03 3.201 9.03C2.094 9.03 1.068 8.073 1.068 6.897C1.068 5.721 2.094 4.763 3.201 4.763ZM8.533 22.896L6.4 22.896L6.4 19.164C6.4 18.87 6.161 18.63 5.867 18.63L1.068 18.63L1.068 12.23C1.068 11.633 1.307 11.081 1.742 10.673C2.176 10.265 2.75 10.065 3.345 10.141C4.461 10.175 5.335 11.221 5.335 12.417L5.335 16.038C5.335 16.257 5.574 16.497 5.867 16.497L8.001 16.497C8.294 16.497 8.533 16.84 8.533 17.03L8.533 22.896ZM22.565 9.564C23.43 8.99 24 8.009 24 6.897C24 5.132 22.565 3.697 20.8 3.697C19.035 3.697 17.6 5.132 17.6 6.897C17.6 8.014 18.176 8.999 19.046 9.571C18.176 10.161 17.6 11.177 17.6 12.39L17.6 15.43L16 15.43C15.117 15.43 14.4 16.148 14.4 17.03L14.4 23.43C14.4 23.724 14.693 23.963 14.933 23.963L18.133 23.963C18.427 23.963 18.667 23.724 18.667 23.43L18.667 19.696L23.466 19.696C23.76 19.696 24 19.457 24 19.164L24 12.23C24 11.351 23.632 10.54 22.99 9.894C22.857 9.772 22.827 9.663 22.565 9.564L22.565 9.564ZM20.8 4.763C21.976 4.763 22.934 5.721 22.934 6.897C22.934 8.073 21.976 9.03 20.8 9.03C19.624 9.03 18.667 8.073 18.667 6.897C18.667 5.721 19.624 4.763 20.8 4.763L20.8 4.763ZM22.934 18.63L18.133 18.63C17.841 18.63 17.6 18.87 17.6 19.164L17.6 22.896L15.467 22.896L15.467 17.03C15.467 16.826 15.708 16.497 16 16.497L18.133 16.497C18.427 16.497 18.667 16.257 18.667 16.036L18.667 12.39C18.667 11.194 19.541 10.175 20.657 10.1C21.254 10.062 21.824 10.265 22.259 10.673C22.693 11.081 22.934 11.633 22.934 12.23L22.934 18.63ZM16.267 4.763L16.267 1.564C16.267 0.681 15.591 0.037 14.667 0.037L9.334 0.037C8.451 0.037 7.734 0.681 7.734 1.564L7.734 4.763C7.734 5.646 8.451 6.364 9.334 6.364L10.371 6.364L11.547 8.246C11.673 8.402 11.817 8.497 12.001 8.497C12.184 8.497 12.355 8.402 12.453 8.246L13.629 6.364L14.667 6.364C15.591 6.364 16.267 5.646 16.267 4.763ZM13.334 5.369C13.15 5.369 12.979 5.393 12.88 5.548L12.001 6.958L11.12 5.548C11.022 5.393 10.851 5.369 10.667 5.369L9.334 5.369C9.04 5.369 8.801 5.057 8.801 4.763L8.801 1.564C8.801 1.27 9.04 1.031 9.334 1.031L14.667 1.031C14.96 1.031 15.201 1.27 15.201 1.564L15.201 4.763C15.201 5.057 14.96 5.369 14.667 5.369L13.334 5.369Z" />
</g>
<g class="root" id="featured" data-name="featured">
	<path class="fill-btn" d="M-0.539 0V24L5 19.384L10.539 24V0Z" />
	<polygon points="6.819 16.855 5 15.853 3.181 16.855 3.583 14.843 2.06 13.444 4.123 13.2 5 11.34 5.877 13.2 7.945 13.449 6.417 14.843 6.819 16.855" class="fill-white" />
</g>
<g class="root" id="header_flair" data-name="header-flair">
	<path class="fill-secondary" d="M-1.923 11.95H14.847c0.337-0.373 1.683-1.744 3.34-1.744 1.88 0 3.36 1.762 3.422 1.837a0.256 0.256 0 0 1 0 0.326c-0.062 0.075-1.542 1.837-3.422 1.837-1.658 0-3.004-1.37-3.34-1.744H-1.923a0.256 0.256 0 0 1 0-0.512Zm20.111 1.744c1.325 0 2.48-1.071 2.88-1.489-0.4-0.417-1.555-1.488-2.88-1.488-1.105 0-2.089 0.743-2.618 1.232h1.289a0.256 0.256 0 0 1 0 0.512H15.57c0.529 0.489 1.514 1.232 2.618 1.232Zm5.003-1.232h1.89a0.256 0.256 0 0 0 0-0.512h-1.89a0.256 0.256 0 0 0 0 0.512Z" />
</g>
<g class="root" id="home" data-name="home">
	<path style="stroke-width: 2;" d="M23.871 13.328l-11.548-11.974a0.437 0.437 0 0 0-0.32-0.137h0a0.443 0.443 0 0 0-0.328 0.133l-11.548 11.98a0.448 0.448 0 0 0 0.008 0.635a0.472 0.472 0 0 0 0.328 0.121a0.448 0.448 0 0 0 0.312-0.136l1.501-1.557V22.331a0.456 0.456 0 0 0 0.456 0.449h6.332a0.448 0.448 0 0 0 0.448-0.449V15.363h4.968v6.969a0.456 0.456 0 0 0 0.456 0.449h6.332a0.456 0.456 0 0 0 0.456-0.449V12.39l1.493 1.553a0.464 0.464 0 0 0 0.32 0.139h0.008a0.445 0.445 0 0 0 0.328-0.755h0Zm-8.935 1.137h-5.871a0.448 0.448 0 0 0-0.448 0.448v6.972h-5.439V11.452l8.816-9.151l8.824 9.151V21.883h-5.439v-6.972a0.448 0.448 0 0 0-0.448-0.448h0Z" />
</g>
<g class="root" id="law" data-name="law">
	<path class="fill-secondary" d="M4.093 9.352L7.768 2.988C6.449 1.445 8.296-0.75 10.168 0.254L15.3 3.295C17.057 4.309 16.026 6.993 14.066 6.624L12.951 8.558L22.538 13.151C23.391 13.643 23.713 14.467 23.275 15.381L22.688 16.584C22.023 17.396 21.116 17.576 20.351 17.063L11.507 11.057L10.392 12.99C11.767 14.521 9.902 16.73 8.126 15.722L2.859 12.681C1.121 11.678 2.098 8.983 4.093 9.352L4.093 9.352ZM12.132 6.424L9.273 11.212L8.385 10.708L11.15 5.918L12.132 6.424ZM9.89 5.19L7.253 9.98L6.255 9.481L9.02 4.69L9.89 5.19ZM14.257 19.806C15.334 19.806 16.217 20.689 16.217 21.765L16.217 24L0.531 24L0.531 21.765C0.531 20.689 1.415 19.806 2.491 19.806L14.258 19.806L14.257 19.806ZM2.491 20.888C1.964 20.888 1.538 21.239 1.538 21.765L1.538 22.993L15.209 22.993L15.209 21.765C15.209 21.239 14.783 20.888 14.258 20.888L2.491 20.888L2.491 20.888ZM12.445 9.433L12.065 10.18L20.846 16.306C21.142 16.402 21.514 16.508 21.708 16.198L22.402 14.877C22.66 14.574 22.391 14.208 22.099 14.058L12.445 9.433L12.445 9.433ZM13.143 6.21L8.589 3.581L5.017 9.767L9.668 12.441C10.76 10.333 11.952 8.345 13.142 6.21L13.143 6.21ZM8.736 2.502L14.046 5.543C14.909 6.067 15.704 4.692 14.797 4.168L9.53 1.127C8.623 0.603 7.83 1.979 8.736 2.502L8.736 2.502ZM4.138 10.424C3.231 9.93 2.466 11.292 3.362 11.809L8.629 14.906C9.526 15.368 10.322 14.024 9.441 13.484L4.14 10.424L4.138 10.424Z" />
</g>
<g class="root" id="menu_2" data-name="menu-2">
	<path d="M0 19.8V18.6H12v1.2ZM0 12.6V11.4H18v1.2ZM0 5.4V4.2H24V5.4Z" />
</g>
<g class="root" id="minus" data-name="minus">
	<path d="M24 13.69h-24V10.31h24" />
</g>
<g class="root" id="payment" data-name="payment">
	<path class="fill-secondary" d="M16.453 5.052C16.453 4.766 16.337 4.508 16.226 4.321C16.119 4.289 16.085 4.26 16.05 4.233L16.05 6.602C16.928 7.036 17.713 7.571 17.713 8.942C17.713 9.573 17.455 10.145 17.042 10.56L17.039 10.562C16.767 10.834 16.547 11.037 16.05 11.205L16.05 11.854L14.886 11.854L14.886 11.205C14.411 11.038 14.07 10.834 13.8 10.562C13.385 10.145 13.128 9.573 13.128 8.942L14.389 8.942C14.389 9.228 14.503 9.488 14.69 9.674C14.722 9.705 14.755 9.734 14.893 9.761L14.893 7.392C13.913 6.958 13.128 6.424 13.128 5.052C13.128 4.419 13.385 3.846 13.8 3.432C14.07 3.16 14.411 2.957 14.893 2.848L14.893 2.154L16.051 2.154L16.051 2.848C16.43 2.957 16.768 3.16 17.04 3.432L17.042 3.434C17.456 3.85 17.714 4.421 17.714 5.052L16.453 5.052L16.453 5.052ZM15.42 1.26C13.902 1.26 12.397 1.9 11.359 2.937C10.321 3.976 9.677 5.412 9.677 6.996C9.677 8.583 10.319 10.018 11.356 11.054C12.397 12.092 13.909 12.734 15.419 12.734C17.005 12.734 18.442 12.093 19.48 11.054C20.639 10.018 21.162 8.583 21.162 6.996C21.162 5.412 20.632 3.976 19.48 2.939C18.443 1.9 17.007 1.259 15.419 1.259L15.42 1.26ZM10.469 2.05C11.738 0.854 13.489 0 15.42 0C17.352 0 19.103 0.854 20.385 2.051C21.639 3.315 22.487 5.065 22.487 6.997C22.487 8.927 21.639 10.677 20.385 11.943C20.138 12.177 19.889 12.394 19.625 12.591L19.615 15.177L20.6 15.177L20.6 19.011L19.601 19.011L19.582 24L1.514 24L1.514 10.275L8.464 7.81C8.433 7.542 8.417 7.271 8.417 6.996C8.417 5.065 9.315 3.315 10.468 2.05L10.469 2.05ZM18.367 13.346C17.472 13.762 16.472 13.994 15.421 13.994C13.488 13.994 11.736 13.211 10.469 11.944C10.296 11.771 10.132 11.589 9.977 11.397L2.687 11.351L2.687 22.832L18.399 22.832L18.347 19.011L15.538 19.011L15.538 15.177L18.36 15.177L18.367 13.346L18.367 13.346ZM9.162 10.138C8.988 9.791 8.84 9.426 8.725 9.049L5.679 10.116L9.163 10.139L9.162 10.138ZM19.339 16.436L16.798 16.436L16.798 17.751L19.339 17.751L19.339 16.436ZM14.886 4.235C14.754 4.262 14.722 4.292 14.69 4.341C14.503 4.509 14.388 4.768 14.388 5.053C14.388 5.433 14.549 5.698 14.886 5.908L14.886 4.235ZM16.05 9.762C16.086 9.735 16.12 9.705 16.233 9.673C16.338 9.488 16.453 9.229 16.453 8.942C16.453 8.562 16.405 8.296 16.05 8.086L16.05 9.762Z" />
</g>
<g class="root" id="plus" data-name="plus">
	<path d="M24 13.69h-10.308v10.308h-3.383V13.69h-10.308V10.31h10.308v-10.308h3.383V10.31h10.308Z" />
</g>
<g class="root" id="right_arrow" data-name="right-arrow">
	<path d="M23.828 11.596L18.649 6.568a0.595 0.595 0 0 0-0.417-0.168h0A0.591 0.591 12.001 0 0 17.687 6.753a0.56 0.56 0 0 0 0.128 0.624l4.174 4.051h-21.4a0.58 0.58 0 0 0-0.589 0.572a0.58 0.58 0 0 0 0.589 0.572h21.4L17.815 16.623a0.56 0.56 0 0 0 0 0.809a0.602 0.602 0 0 0 0.834 0l5.18-5.028A0.56 0.56 12.001 0 0 23.828 11.596Z" />
</g>
<g class="root" id="search" data-name="search">
	<path d="M2.77 8.945a6.153 6.153 0 1 1 1.802 4.376A5.954 5.954-858.873 0 1 2.77 8.945Zm13.318 6.177l-0.384-0.384a8.546 8.546 0 0 0 2.124-5.792a8.69 8.69 0 0 0-2.574-6.338a8.524 8.524 0 0 0-6.306-2.606a8.9 8.9 0 0 0-8.947 8.945a8.521 8.521 0 0 0 2.607 6.306a8.681 8.681 0 0 0 6.338 2.574a8.546 8.546 0 0 0 5.792-2.123l0.384 0.384v1.094l6.818 6.818l2.06-2.06l-6.818-6.818Z" />
</g>
<g class="root" id="spanish" data-name="spanish">
	<path class="fill-secondary" d="M23.2 18.836C22.689 19.348 21.995 19.636 21.273 19.637L17.455 19.637L17.455 22.364C17.455 22.509 17.397 22.648 17.295 22.75C17.192 22.89 17.054 22.909 16.909 22.909C16.791 22.91 16.676 22.871 16.582 22.801L12.245 19.527C12.102 19.44 12.026 19.311 12.005 19.168C11.985 19.025 12.022 18.88 12.152 18.764C12.196 18.648 12.325 18.571 12.468 18.551C12.611 18.53 12.757 18.568 12.872 18.655L16.363 21.273L16.363 19.091C16.363 18.947 16.42 18.808 16.523 18.705C16.625 18.603 16.764 18.546 16.909 18.546L21.273 18.546C21.706 18.545 22.122 18.372 22.429 18.066C22.736 17.759 22.909 17.343 22.909 16.909L22.909 7.091C22.909 6.657 22.736 6.241 22.429 5.935C22.122 5.628 21.706 5.455 21.273 5.454C21.077 5.454 20.994 5.351 20.8 5.182C20.703 5.013 20.703 4.805 20.8 4.636C20.994 4.468 21.077 4.364 21.273 4.364L21.273 4.364C21.995 4.365 22.689 4.652 23.2 5.163C23.712 5.675 23.999 6.368 24 7.091L24 16.909C23.999 17.723 23.712 18.326 23.2 18.836ZM16.909 16.364L11.636 16.364L7.418 19.527C7.309 19.608 7.174 19.647 7.039 19.73C6.904 19.621 6.874 19.559 6.687 19.458C6.596 19.358 6.545 19.227 6.545 19.091L6.545 16.364L2.727 16.364C2.004 16.363 1.311 16.16 0.799 15.564C0.288 15.053 0 14.359 0 13.637L0 3.819C0 3.096 0.288 2.501 0.799 1.891C1.311 1.38 2.004 1.092 2.727 1.091L16.909 1.091C17.632 1.092 18.325 1.38 18.836 1.891C19.347 2.501 19.636 3.096 19.636 3.819L19.636 13.637L19.636 13.637C19.636 14.359 19.348 15.053 18.837 15.564C18.325 16.159 17.632 16.363 16.909 16.364ZM18.545 3.819C18.545 3.385 18.373 2.968 18.066 2.662C17.759 2.355 17.343 2.182 16.909 2.182L2.727 2.182C2.293 2.182 1.889 2.355 1.571 2.662C1.264 2.968 1.091 3.385 1.09 3.819L1.09 13.637C1.091 14.121 1.264 14.486 1.571 14.793C1.889 15.1 2.293 15.273 2.727 15.273L7.09 15.273C7.235 15.273 7.374 15.33 7.476 15.433C7.579 15.535 7.636 15.674 7.636 15.819L7.636 18L11.127 15.382C11.283 15.311 11.432 15.273 11.454 15.273L16.909 15.273C17.343 15.273 17.759 15.1 18.066 14.793C18.373 14.486 18.544 14.121 18.545 13.637L18.545 3.819ZM9.818 14.238C8.371 14.238 6.984 13.608 5.961 12.585C4.938 11.561 4.363 10.251 4.363 8.727C4.363 7.28 4.938 5.894 5.961 4.871C6.984 3.848 8.371 3.273 9.818 3.273L9.818 3.273C11.264 3.274 12.65 3.85 13.673 4.873C14.696 5.895 15.271 7.281 15.273 8.727C15.273 10.251 14.697 11.562 13.675 12.585C12.652 13.608 11.264 14.238 9.818 14.238ZM6.158 6.458C5.787 6.983 5.584 7.571 5.509 8.269L6.577 8.269C6.62 7.12 6.95 6.08 7.357 5.129C6.851 5.478 6.425 5.931 6.158 6.458ZM6.577 9.273L5.509 9.273L5.509 9.273C5.584 9.884 5.787 10.471 6.158 10.998C6.425 11.524 6.851 11.977 7.357 12.327C6.95 11.375 6.62 10.334 6.577 9.273ZM9.272 4.542C8.496 4.99 7.789 6.341 7.751 8.269L9.272 8.269L9.272 4.542ZM9.272 9.273L7.751 9.273C7.789 11.114 8.496 12.465 9.272 12.913L9.272 9.273ZM10.363 4.542L10.363 8.269L11.97 8.269C11.847 6.341 11.14 4.99 10.363 4.542ZM10.363 9.273L10.363 12.913C11.14 12.465 11.847 11.114 11.97 9.273L10.363 9.273ZM14.126 8.268C14.052 7.571 13.848 6.983 13.53 6.458C13.21 5.931 12.784 5.478 12.278 5.129C12.75 6.08 13.016 7.12 13.058 8.269L14.126 8.269L14.126 8.268ZM13.058 9.273C13.016 10.334 12.75 11.375 12.278 12.327C12.784 11.977 13.211 11.524 13.53 10.998C13.848 10.471 14.052 9.884 14.126 9.273L13.058 9.273Z" />
</g>
<g class="root" id="star" data-name="star">
	<polygon points="12 18.1 19.4 23.5 16.6 14.7 24 9.5 15 9.5 12 0.5 9 9.5 0 9.5 7.4 14.7 4.6 23.5" xmlns="http://www.w3.org/2000/svg" />
</g>
</svg>