<?xml version="1.0" encoding="UTF-8" standalone="no"?>
<svg xmlns="http://www.w3.org/2000/svg" viewBox="0 0 16 16">
<style>
	g path { stroke: none; }
	g.root { display: none; }
	g.root:target { display: inline; }
	g line { stroke: black; }
	g circle { stroke: black; }
	g polyline { stroke: black; }
</style>
<g class="root" id="checkmark" data-name="Checkmark">
	<polyline points="2 8 6 12 14 4" style="stroke-linecap:round;stroke-width:2;stroke-linejoin:round;fill:none" />
</g>
<g class="root" id="caret" data-name="Caret">
	<polyline points="2 5 8 11 14 5" style="stroke-linecap:round;stroke-width:2;stroke-linejoin:round;fill:none" />
</g>
<g class="root" id="arrow" data-name="Arrow">
	<polyline points="1 8 8 15 15 8" style="stroke-linecap:round;stroke-width:2;stroke-linejoin:round;fill:none"></polyline>
	<polyline points="8 14 8 1" style="stroke-linecap:round;stroke-width:2;stroke-linejoin:round;fill:none"></polyline>
</g>
<g class="root" id="arrow_small" data-name="Arrow Small">
	<polyline points="3 8 8 12 13 8" style="stroke-linecap:round;stroke-width:2;stroke-linejoin:round;fill:none"></polyline>
	<polyline points="8 11 8 3" style="stroke-linecap:round;stroke-width:2;stroke-linejoin:round;fill:none"></polyline>
</g>
<g class="root" id="cancel" data-name="Cancel">
	<polyline points="2 2 14 14" style="stroke-linecap:round;stroke-width:2;stroke-linejoin:round;fill:none"></polyline>
	<polyline points="2 14 14 2" style="stroke-linecap:round;stroke-width:2;stroke-linejoin:round;fill:none"></polyline>
</g>
<g class="root" id="refresh" data-name="Refresh">
	<path d="M7.72 2.312c0.093 0 0.181-0.027 0.274-0.027a5.667 5.667 0 0 1 3.398 1.143H10.28a1.143 1.143 0 0 0 0 2.286h3.429a1.143 1.143 0 0 0 1.143-1.143V1.142a1.143 1.143 0 0 0-2.286 0v0.297A8 8-49.148 0 0 0.232 6.056a6.392 6.392 0 0 0-0.114 0.648A1.143 1.143-49.148 0 0 1.252 7.999h0a1.131 1.131 0 0 0 1.113-0.95A5.714 5.714-49.148 0 1 7.72 2.312Z" />
	<path d="M14.781 7.914a1.104 1.104 0 0 0-1.088 0.934a5.745 5.745 0 0 1-5.391 4.814c-0.093 0-0.181 0.029-0.275 0.029a5.665 5.665 0 0 1-3.413-1.155h1.117a1.155 1.155 0 0 0 0-2.311H2.286A1.152 1.152-49.148 0 0 1.137 11.379v3.465a1.143 1.143 0 1 0 2.296 0v-0.301A7.929 7.929-49.148 0 0 8.026 15.999a8.048 8.048 0 0 0 7.782-6.057a5.545 5.545 0 0 0 0.083-0.92a1.115 1.115 0 0 0-1.111-1.112Z" />
</g>
<g class="root" id="drag_handle" data-name="Drag Handle">
	<circle cx="5" cy="2" r="1.5" />
	<circle cx="11" cy="2" r="1.5" />
	<circle cx="5" cy="8" r="1.5" />
	<circle cx="11" cy="8" r="1.5" />
	<circle cx="5" cy="14" r="1.5" />
	<circle cx="11" cy="14" r="1.5" />
</g>
<g class="root" id="add" data-name="Add">
	<polyline points="8 1 8 15" fill="none" style="stroke-width:2;stroke-linecap:round"/>
	<polyline points="1 8 15 8" fill="none" style="stroke-width:2;stroke-linecap:round"/>
</g>
<g class="root" id="batch_import" data-name="Batch Import">
	<path d="M12.5 16L2.5 16C1.122 16 0 14.879 0 13.5L0 7.5C0 6.121 1.122 5 2.5 5L5.5 5C5.776 5 6 5.224 6 5.5C6 5.776 5.776 6 5.5 6L2.5 6C1.673 6 1 6.673 1 7.5L1 13.5C1 14.327 1.673 15 2.5 15L12.5 15C13.327 15 14 14.327 14 13.5L14 7.5C14 6.673 13.327 6 12.5 6L9.5 6C9.224 6 9 5.776 9 5.5C9 5.224 9.224 5 9.5 5L12.5 5C13.879 5 15 6.121 15 7.5L15 13.5C15 14.879 13.879 16 12.5 16ZM13.5 4L9.5 4C9.224 4 9 3.776 9 3.5C9 3.224 9.224 3 9.5 3L13.5 3C13.776 3 14 3.224 14 3.5C14 3.776 13.776 4 13.5 4ZM12.5 2L9.5 2C9.224 2 9 1.776 9 1.5C9 1.224 9.224 1 9.5 1L12.5 1C12.776 1 13 1.224 13 1.5C13 1.776 12.776 2 12.5 2ZM9.14 9.136C9.34 8.936 9.664 8.936 9.864 9.136C10.064 9.336 10.064 9.66 9.864 9.86L7.892 11.832C7.883 11.842 7.868 11.838 7.859 11.846C7.768 11.941 7.641 12 7.5 12C7.359 12 7.232 11.941 7.142 11.846C7.132 11.838 7.117 11.842 7.108 11.832L5.136 9.86C4.936 9.66 4.936 9.336 5.136 9.136C5.336 8.936 5.66 8.936 5.86 9.136L7 10.275L7 0.5C7 0.224 7.224 0 7.5 0C7.776 0 8 0.224 8 0.5L8 10.275L9.14 9.136ZM5.5 4L1.5 4C1.224 4 1 3.776 1 3.5C1 3.224 1.224 3 1.5 3L5.5 3C5.776 3 6 3.224 6 3.5C6 3.776 5.776 4 5.5 4ZM5.5 2L2.5 2C2.224 2 2 1.776 2 1.5C2 1.224 2.224 1 2.5 1L5.5 1C5.776 1 6 1.224 6 1.5C6 1.776 5.776 2 5.5 2Z"/>
</g>
<g class="root" id="plus" data-name="plus">
	<path d="M14.665 9.333h-5.332v5.332a1.333 1.333 0 0 1-2.667 0v-5.332h-5.332a1.333 1.333 0 0 1 0-2.667h5.332v-5.332a1.333 1.333 0 0 1 2.667 0v5.332h5.332A1.333 1.333-1941.253 0 1 14.665 9.333Z" />
</g>
<g class="root" id="subtract" data-name="Subtract">
	<line x1="1" y1="8" x2="15" y2="8" fill="none" style="stroke-width:2;stroke-linecap:round" />
</g>
<g class="root" id="location" data-name="location">
	<path d="M7.998 2.002C10.2 2.002 11.992 3.804 11.992 6.019C11.992 6.699 11.817 7.376 11.487 7.974L11.427 8.083L11.424 8.09C11.322 8.252 11.226 8.389 11.125 8.517L11.084 8.568L11.047 8.622L8.002 13.027L5.003 8.687L4.953 8.616L4.898 8.549C4.32 7.851 4.002 6.953 4.002 6.019C4.002 3.804 5.795 2.002 7.998 2.002M7.998 0C4.691 0 1.999 2.7 1.999 6.019C1.999 7.419 2.479 8.769 3.354 9.825L7.406 15.687C7.539 15.88 7.763 15.999 8.001 15.999C8.24 15.999 8.464 15.88 8.6 15.683L12.695 9.759C12.856 9.556 13.009 9.337 13.17 9.075C13.198 9.031 13.223 8.987 13.241 8.94C13.735 8.047 13.995 7.037 13.995 6.019C13.995 2.7 11.305 0 7.998 0L7.998 0Z" />
</g>
<g class="root" id="ellipse" data-name="Ellipse">
	<path d="M13.715 10.285C12.452 10.285 11.429 9.263 11.429 8C11.429 6.737 12.452 5.714 13.715 5.714C14.977 5.714 16 6.737 16 8C16 9.263 14.977 10.285 13.715 10.285ZM8 10.285C6.737 10.285 5.715 9.263 5.715 8C5.715 6.737 6.737 5.714 8 5.714C9.263 5.714 10.286 6.737 10.286 8C10.286 9.263 9.263 10.285 8 10.285ZM2.286 10.285C1.024 10.285 0 9.263 0 8C0 6.737 1.024 5.714 2.286 5.714C3.549 5.714 4.572 6.737 4.572 8C4.572 9.263 3.549 10.285 2.286 10.285Z" />
</g>
<g class="root" id="globe" data-name="Globe">
	<path d="M8 16C3.589 16 0 12.41 0 8C0 3.589 3.589 0 8 0C12.412 0 16 3.589 16 8C16 12.41 12.412 16 8 16ZM7.577 4.314L6.922 4L6.461 4L7.692 4.922L7.077 5.384L6.922 5.23L7.077 4.922L6 4.308L4.769 5.077L7.077 5.692L9.269 5.384L8.653 4.616L8.653 4.154L8.361 4.1L8.038 4.769L7.577 4.314ZM8.35 1.24L8.5 1.538L9.093 1.32C8.849 1.28 8.601 1.253 8.35 1.24ZM9.577 3.23L8.5 3.23L8.653 3.846L9.422 4L10.038 3.692L9.577 3.23ZM13.885 6.461L13.422 8.616L12.961 7.846L12.961 7.385L12.346 6.308L11.269 6.308L11.269 6.922L10.5 7.538L9.73 8L8.5 6.153L8.192 6.153L9.577 8.461L10.5 8.461L10.5 8.769C10.5 8.769 9.517 9.782 9.422 9.846C9.145 10.034 9.116 10.616 9.116 10.616C9.116 10.616 9.116 11.385 9.116 11.538C9.116 11.692 8.653 12 8.653 12C8.653 12 8.477 12.524 8.346 12.769C8.089 13.249 7.73 13.682 7.422 13.686C7.116 13.692 6.429 12.717 6.192 12.461C5.87 12.114 5.89 11.75 5.885 11.23C5.88 10.752 5.782 10.718 5.577 10.308C5.46 10.073 5.429 9.84 5.425 9.538C5.422 9.384 5.269 9.23 5.116 9.23C4.961 9.23 4.5 9.23 4.5 9.23C4.5 9.23 3.294 9.18 3.116 8.461C3.044 8.177 2.977 7.846 2.969 7.23C2.961 6.63 3.11 5.74 4.113 4.982L4.038 4.922L4.038 4L4.961 3.692L5.269 3.077L4.808 2.769L5.577 2.153L5.577 2.769L6.192 2.461L6.346 2L6.653 1.692L7.542 1.248C4.022 1.484 1.23 4.421 1.23 8C1.23 8.665 1.329 9.309 1.509 9.917C1.897 10.072 2.264 10.225 2.346 10.308C2.529 10.49 2.702 11.474 2.841 12.376C4.084 13.838 5.934 14.769 8 14.769C11.732 14.769 14.769 11.732 14.769 8C14.769 7.944 14.766 7.888 14.765 7.83L13.885 6.461ZM9.422 13.077C9.269 13.077 9.269 12.93 9.269 12.773C9.269 12.616 9.397 12.505 9.577 12.308C9.672 12.202 9.885 11.992 9.885 11.842C9.884 11.692 10.022 11.538 10.192 11.538C10.362 11.538 10.5 11.68 10.5 11.85C10.5 12.149 10.257 12.374 10.038 12.616C9.982 12.676 9.577 13.077 9.422 13.077Z" />
</g>
<g class="root" id="info" data-name="Info">
	<path d="M8 0C3.581 0 0 3.581 0 8s3.581 8 8 8s8-3.581 8-8S12.419 0 8 0zM7.544 3.544c0.225-0.228 0.534-0.355 0.855-0.352C9.06 3.191 9.598 3.727 9.6 4.389c0 0.003 0 0.008 0 0.011c0.005 0.319-0.124 0.627-0.353 0.848C9.024 5.476 8.717 5.605 8.397 5.6c-0.32 0.003-0.628-0.124-0.855-0.352C7.312 5.027 7.183 4.72 7.188 4.4C7.183 4.078 7.312 3.769 7.544 3.544zM9.478 11.576c-0.392 0.136-0.706 0.248-0.939 0.32c-0.264 0.078-0.539 0.116-0.814 0.112c-0.394 0.022-0.784-0.091-1.108-0.32c-0.253-0.188-0.402-0.484-0.395-0.8c0.002-0.128 0.011-0.256 0.03-0.384c0.02-0.128 0.052-0.272 0.095-0.44l0.491-1.569c0.044-0.152 0.08-0.295 0.111-0.431C6.975 7.944 6.991 7.82 6.992 7.695C7.009 7.544 6.958 7.392 6.855 7.28C6.698 7.183 6.514 7.14 6.33 7.16C6.198 7.16 6.067 7.178 5.94 7.216C5.808 7.248 5.692 7.28 5.597 7.312l0.131-0.48c0.32-0.12 0.628-0.224 0.922-0.305C6.92 6.445 7.202 6.402 7.484 6.4c0.389-0.025 0.773 0.086 1.091 0.312c0.248 0.191 0.391 0.488 0.383 0.8c0 0.072-0.008 0.192-0.027 0.36c-0.016 0.163-0.048 0.324-0.097 0.48l-0.489 1.56c-0.044 0.142-0.08 0.286-0.108 0.431c-0.027 0.12-0.044 0.244-0.047 0.369c-0.019 0.158 0.039 0.316 0.153 0.424c0.163 0.088 0.348 0.127 0.534 0.112c0.136-0.006 0.269-0.024 0.4-0.056c0.112-0.025 0.224-0.061 0.33-0.105L9.478 11.576z" />
</g>
<g class="root" id="lock" data-name="lock">
	<path d="M12.667 6L12 6L12 4C12 1.791 10.209 0 8 0C5.791 0 4 1.791 4 4L4 6L3.333 6C2.597 6 2 6.597 2 7.333L2 14.667C2 15.403 2.597 16 3.333 16L12.667 16C13.403 16 14 15.403 14 14.667L14 7.333C14 6.597 13.403 6 12.667 6ZM5.992 4.282C5.992 3.017 6.891 1.991 8 1.991C9.109 1.991 10.008 3.017 10.008 4.282L10.008 6L5.992 6L5.992 4.282ZM12.009 14.009L3.991 14.009L3.991 7.991L12.009 7.991L12.009 14.009Z" />
</g>
<g class="root" id="lock_invert" data-name="Lock Invert">
	<path d="M8 16C3.582 16 0 12.418 0 8C0 3.582 3.582 0 8 0C12.418 0 16 3.582 16 8C16 12.418 12.418 16 8 16ZM11.009 7.769C11.009 7.343 10.71 6.999 10.34 6.999L10 7L10.006 6.247C10.006 5.003 9.108 3.995 8 3.995C6.892 3.995 5.994 5.003 5.994 6.247L6 7L5.66 6.999C5.29 6.999 4.991 7.343 4.991 7.769L4.991 11.254C4.991 11.669 5.29 12.005 5.66 12.005L10.34 12.005C10.71 12.005 11.009 11.669 11.009 11.254L11.009 7.769ZM6.993 6.139C6.993 5.506 7.444 5.116 8 5.116C8.556 5.116 9.007 5.506 9.007 6.139L9.007 6.999L6.993 6.999L6.993 6.139Z" />
</g>
<g class="root" id="upload" data-name="Upload">
	<path d="M12 14L4 14C3.448 14 3 13.552 3 13C3 12.448 3.448 12 4 12L12 12C12.552 12 13 12.448 13 13C13 13.552 12.552 14 12 14ZM10.134 6.668L9 5.534L9 10C9 10.552 8.552 11 8 11C7.448 11 7 10.552 7 10L7 5.534L5.866 6.668C5.443 7.091 4.756 7.091 4.332 6.668C3.909 6.244 3.909 5.557 4.332 5.134L7.167 2.298C7.396 2.07 7.701 1.975 8 1.993C8.299 1.975 8.604 2.07 8.832 2.298L11.668 5.134C12.091 5.557 12.091 6.244 11.668 6.668C11.244 7.091 10.557 7.091 10.134 6.668Z" />
</g>
<g class="root" id="autosave" data-name="Autosave">
	<path d="M11.889 1H2.556C1.696 1 1 1.696 1 2.556v10.889C1 14.304 1.696 15 2.556 15h10.889C14.304 15 15 14.304 15 13.444V4.111L11.889 1zM3.997 1.996H10.01v2.992H3.997V1.996z" />
</g>
<g class="root" id="copy" data-name="copy">
	<path d="M3.433 13.732V3.466l-2.267 0V16h11.4l0-2.267H3.433zM10.233 4.6l0-4.6H4.567l0 12.6l10.267 0v-8H10.233zM11.367 0v3.4h3.4L11.367 0z" />
</g>
<g class="root" id="child_page" data-name="Child Page">
	<path d="M14.418 11.305C14.362 11.362 14.293 11.395 14.226 11.433L9.908 15.75C9.575 16.083 9.035 16.083 8.702 15.75C8.368 15.417 8.368 14.876 8.702 14.544L11.686 11.558L7.279 11.558C4.003 11.558 1.336 8.766 1.336 5.334L1.336 0.889C1.336 0.398 1.735 0 2.226 0C2.718 0 3.116 0.398 3.116 0.889L3.116 5.334C3.116 7.786 4.984 9.78 7.279 9.78L11.686 9.78L8.702 6.794C8.368 6.461 8.368 5.921 8.702 5.587C9.035 5.254 9.575 5.254 9.908 5.587L14.206 9.885C14.282 9.923 14.354 9.969 14.418 10.033C14.594 10.208 14.671 10.44 14.662 10.669C14.671 10.898 14.594 11.129 14.418 11.305Z" />
</g>
<g class="root" id="ascend_arrow" data-name="Ascend Arrow">
	<path d="M14 10C13.448 10 13 9.552 13 9L13 4.427L3.716 13.711C3.322 14.105 2.683 14.105 2.289 13.711C1.895 13.317 1.895 12.678 2.289 12.284L11.573 3L7 3C6.448 3 6 2.552 6 2C6 1.448 6.448 1 7 1L14 1C14.552 1 15 1.448 15 2L15 9C15 9.552 14.552 10 14 10Z" />
</g>
<g class="root" id="decline_arrow" data-name="Decline Arrow">
	<path d="M14 15L7 15C6.448 15 6 14.552 6 14C6 13.447 6.448 13 7 13L11.573 13L2.289 3.716C1.895 3.322 1.895 2.683 2.289 2.289C2.683 1.895 3.322 1.895 3.716 2.289L13 11.573L13 7C13 6.448 13.448 6 14 6C14.552 6 15 6.448 15 7L15 14C15 14.552 14.552 15 14 15Z" />
</g>
<g class="root" id="static_arrow" data-name="Static Arrow">
	<path d="M14.915 8.395C14.865 8.52 14.79 8.638 14.688 8.739L10.739 12.688C10.337 13.091 9.683 13.091 9.279 12.688C8.877 12.285 8.877 11.631 9.279 11.228L11.499 9.009L2.065 9.009C1.481 9.009 1.007 8.561 1.007 8.008C1.007 7.455 1.481 7.007 2.065 7.007L11.58 7.007L9.312 4.739C8.909 4.336 8.909 3.683 9.312 3.28C9.715 2.876 10.369 2.876 10.771 3.28L14.721 7.228C15.037 7.545 15.096 8.012 14.915 8.395Z" />
</g>
<g class="root" id="static_arrow_left" data-name="Static Arrow Left">
	<path d="M0.378 7.047C0.422 7.003 0.481 6.983 0.53 6.947L5.758 1.712C6.27 1.2 7.098 1.2 7.611 1.712C8.122 2.224 8.122 3.054 7.611 3.565L4.506 6.674L14.671 6.674C15.404 6.674 16 7.27 16 8.007C16 8.744 15.404 9.34 14.671 9.34L4.522 9.34L7.611 12.433C8.122 12.946 8.122 13.776 7.611 14.288C7.098 14.799 6.27 14.799 5.758 14.288L0.529 9.052C0.481 9.016 0.422 8.997 0.378 8.952C0.116 8.689-0.007 8.344 0 7.999C-0.007 7.655 0.116 7.309 0.378 7.047Z" />
</g>
</svg>