<?xml version="1.0" encoding="UTF-8" standalone="no"?>
<svg xmlns="http://www.w3.org/2000/svg" viewBox="0 0 36 36">
<style>
	g path { stroke: none; }
	g.root { display: none; }
	g.root:target { display: inline; }
	g line { stroke: black; }
	g circle { stroke: black; }
	g polyline { stroke: black; }
</style>
<g class="root" id="accessibility" data-name="accessibility">
	<circle cx="18" cy="18" r="18" class="cls-1" />
	<path class="cls-2" d="M20.308 27.42a1.124 1.124 0 0 0 1.04 0.68a1.064 1.064 0 0 0 0.48-0.12a1.152 1.152 0 0 0 0.56-1.56s-2.2-5.04-2.6-6.88a25.092 25.092 0 0 1-0.28-3.16a0.616 0.616 0 0 1 0.4-0.6l4.92-1.48a1.164 1.164 0 0 0-0.64-2.24s-4.56 1.48-6.2 1.48-6.12-1.44-6.12-1.44a1.2 1.2 0 0 0-1.48 0.72a1.156 1.156 0 0 0 0.8 1.48l4.92 1.48a0.568 0.568 0 0 1 0.4 0.6a25.092 25.092 0 0 1-0.28 3.16c-0.4 1.84-2.6 6.88-2.6 6.88a1.2 1.2 0 0 0 0.56 1.56a1.12 1.12 0 0 0 0.48 0.12a1.092 1.092 0 0 0 1.04-0.68l2.36-4.8Zm0-17.28a2.24 2.24 0 1 1-2.24-2.24a2.24 2.24 0 0 1 2.24 2.24" />
</g>
<g class="root" id="accessibility_clear_all" data-name="accessibility-clear-all">
	<path d="M30.94 7.361L28.793 36L6.794 36L4.649 7.361L1.635 7.361L1.635 4.78L11.706 4.78L11.706 0L23.801 0L23.801 4.78L34.365 4.78L34.365 7.361L30.94 7.361ZM21.323 2.538L14.223 2.538L14.223 4.738L21.323 4.738L21.323 2.538ZM7.125 7.317L9.064 33.376L26.399 33.376L28.381 7.317L7.125 7.317ZM21.122 29.72L22.115 10.966L24.629 11.106L23.636 29.861L21.122 29.72ZM16.493 11.041L19.011 11.041L19.011 29.782L16.493 29.782L16.493 11.041ZM10.875 11.106L13.389 10.967L14.38 29.722L11.867 29.861L10.875 11.106Z" />
</g>
<g class="root" id="accessibility_hide" data-name="accessibility-hide">
	<path d="M36 3.281L32.729 0.009L18.001 14.729L3.272 0.009L0 3.281L14.728 17.999L0 32.719L3.272 35.991L18.001 21.271L32.729 35.991L36 32.719L21.273 17.999L36 3.281Z" />
</g>
<g class="root" id="accessibility_high_contr" data-name="accessibility-high-contrast">
	<path d="M18 36C8.06 36 0 27.94 0 18C0 8.059 8.06 0 18 0C27.941 0 36 8.06 36 18C36 27.94 27.94 36 18 36ZM18 2.878C9.662 2.878 2.88 9.662 2.88 18C2.88 26.338 9.662 33.122 18 33.122C26.338 33.122 33.122 26.338 33.122 18C33.122 9.662 26.338 2.878 18 2.878ZM29.637 18C29.637 18 29.637 18 29.637 18C29.637 18 29.637 18 29.637 18L29.637 18ZM18 29.637L18 6.363C24.417 6.363 29.637 11.583 29.637 18C29.637 24.417 24.417 29.637 18 29.637Z" />
</g>
<g class="root" id="accessibility_skip_to_co" data-name="accessibility-skip-to-content">
	<path d="M12.594 23.418L12.594 19.825L36 19.825L36 23.418L12.594 23.418ZM0 12.58L36 12.58L36 16.175L0 16.175L0 12.58ZM27.027 3.599L36 3.599L36 7.192L27.027 7.192L27.027 3.599ZM0 3.599L23.409 3.599L23.409 7.192L0 7.192L0 3.599ZM8.975 23.418L0 23.418L0 19.825L8.975 19.825L8.975 23.418ZM19.79 32.401L0 32.401L0 28.806L19.79 28.806L19.79 32.401Z" />
</g>
<g class="root" id="accessibility_text_size" data-name="accessibility-text-size">
	<path d="M30.953 17.652L30.953 12.604L28.429 12.604L28.429 17.652L23.38 17.652L23.38 20.177L28.429 20.177L28.429 25.224L30.953 25.224L30.953 20.177L36 20.177L36 17.652L30.953 17.652ZM27.02 1.805L0.009 1.796L0 5.405L11.052 5.405L11.052 34.204L14.738 34.204L14.738 5.405L27.02 5.405L27.02 1.805Z" />
</g>
</svg>