<?xml version="1.0" encoding="UTF-8" standalone="no"?>
<svg xmlns="http://www.w3.org/2000/svg" viewBox="0 0 36 36">
<style>
	g path { stroke: none; }
	g line { stroke: black; }
	g circle { stroke: black; }
	g polyline { stroke: black; }
</style>
<g class="root" id="linkedin" data-name="LinkedIn">
	<path d="M4.286 1.688C1.695 1.688 0 3.347 0 5.536C0 7.684 1.647 9.378 4.187 9.378L4.238 9.378C6.875 9.378 8.517 7.677 8.517 5.529C8.467 3.342 6.875 1.688 4.286 1.688ZM27.096 11.936C23.076 11.936 20.557 14.106 20.091 15.627L20.091 12.149L12.208 12.149C12.311 13.996 12.208 34.312 12.208 34.312L20.091 34.312L20.091 22.319C20.091 21.653 20.06 20.986 20.262 20.508C20.805 19.176 21.969 17.792 24.063 17.792C26.799 17.792 28.044 19.842 28.044 22.843L28.044 34.312L36 34.312L36 21.989C36 15.125 32.082 11.936 27.096 11.936ZM0.908 12.15L0.908 34.312L7.924 34.312L7.924 12.15L0.908 12.15Z" />
</g>
</svg>